<svg xmlns="http://www.w3.org/2000/svg" width="39.394" height="51.59" viewBox="0 0 39.394 51.59">
  <g id="noun_List_843508" transform="translate(0 0)">
    <g id="Group_46121" data-name="Group 46121" transform="translate(0 0)">
      <rect id="Rectangle_30486" data-name="Rectangle 30486" width="19.05" height="2.808" transform="translate(6.607 14.811)" fill="#fff"/>
      <rect id="Rectangle_30487" data-name="Rectangle 30487" width="19.05" height="2.808" transform="translate(6.607 20.151)" fill="#fff"/>
      <rect id="Rectangle_30488" data-name="Rectangle 30488" width="19.05" height="2.808" transform="translate(6.607 25.492)" fill="#fff"/>
      <rect id="Rectangle_30489" data-name="Rectangle 30489" width="9.525" height="2.808" transform="translate(6.607 30.778)" fill="#fff"/>
      <path id="Path_38155" data-name="Path 38155" d="M31.351,12.23H44.179a.493.493,0,0,0,.5-.5V8.045a.828.828,0,0,0-.551-.771l-3.909-.936V5.678a2.478,2.478,0,1,0-4.955,0v.661l-3.909.936a.828.828,0,0,0-.551.771v3.689A.585.585,0,0,0,31.351,12.23Zm6.442-7.763a1.046,1.046,0,1,1-1.046,1.046A1.012,1.012,0,0,1,37.792,4.466Z" transform="translate(-21.66 -3.2)" fill="#fff"/>
      <path id="Path_38156" data-name="Path 38156" d="M52.19,40.395l-.771-.771a4.878,4.878,0,0,0-3.414-1.376,5.115,5.115,0,0,0-1.6.275V18.206A5.522,5.522,0,0,0,40.9,12.7H38.646v2.808H40.9a2.643,2.643,0,0,1,2.643,2.643V40.615l-5.231,5.341-1.542-1.542a4.931,4.931,0,0,0-3.414-1.432,4.794,4.794,0,0,0-3.414,1.432l-.055.055-.055.055-.661.716a4.845,4.845,0,0,0-1.211,4.625H19.706a2.643,2.643,0,0,1-2.643-2.643V18.206a2.643,2.643,0,0,1,2.643-2.643h2.257V12.755H19.706A5.522,5.522,0,0,0,14.2,18.261V47.222a5.522,5.522,0,0,0,5.506,5.506H29.947l4.239,4.24.716.716a4.878,4.878,0,0,0,3.414,1.376,4.977,4.977,0,0,0,3.414-1.376L52.19,47.222A4.852,4.852,0,0,0,52.19,40.395Zm-1.982,4.79-4.295,4.295-2.643,2.643L39.8,55.591a1.867,1.867,0,0,1-2.753,0l-.716-.716-2.257-2.257-2.7-2.7c-.055-.055-.11-.11-.11-.165a1.951,1.951,0,0,1,.11-2.643l.661-.716a1.867,1.867,0,0,1,2.753,0l3.359,3.359.165.165.165-.165,5.12-5.176,2.808-2.863.22-.22a1.867,1.867,0,0,1,2.753,0l.771.771A2.078,2.078,0,0,1,50.208,45.185Z" transform="translate(-14.2 -7.469)" fill="#fff"/>
    </g>
  </g>
</svg>
