<svg xmlns="http://www.w3.org/2000/svg" width="49.75" height="49.833" viewBox="0 0 49.75 49.833">
  <g id="noun_shipping_box_3884151" data-name="noun_shipping box_3884151" transform="translate(-2.386 -2.386)">
    <g id="Group_45937" data-name="Group 45937" transform="translate(2.386 2.386)">
      <path id="Path_38094" data-name="Path 38094" d="M53,44.31V57.381a.463.463,0,0,0,.68.418l9.516-4.34a.466.466,0,0,0,.261-.418V39.97a.463.463,0,0,0-.68-.418l-9.516,4.34A.533.533,0,0,0,53,44.31Z" transform="translate(-26.537 -20.095)" fill="#fff"/>
      <path id="Path_38095" data-name="Path 38095" d="M50.549,29.642l-8.94-4.078a.573.573,0,0,0-.418,0l-8.94,4.078a.456.456,0,0,0,0,.837l8.94,4.078a.573.573,0,0,0,.418,0l8.94-4.078A.456.456,0,0,0,50.549,29.642Z" transform="translate(-16.505 -13.427)" fill="#fff"/>
      <path id="Path_38096" data-name="Path 38096" d="M27.78,39.557a.482.482,0,0,0-.68.418V53.046a.414.414,0,0,0,.261.418l9.516,4.34a.482.482,0,0,0,.68-.418V44.315A.414.414,0,0,0,37.3,43.9Z" transform="translate(-14.179 -20.1)" fill="#fff"/>
      <path id="Path_38097" data-name="Path 38097" d="M11.442,20.8a1.231,1.231,0,0,0,.418.1,1.182,1.182,0,0,0,1.1-.732A19.569,19.569,0,0,1,28.8,7.831v1.83a.863.863,0,0,0,.471.784.985.985,0,0,0,.418.1.73.73,0,0,0,.471-.157L34.709,7.2a.915.915,0,0,0,.366-.732,1.1,1.1,0,0,0-.366-.732L30.16,2.55a.792.792,0,0,0-.889-.052.9.9,0,0,0-.471.784v2.2a21.725,21.725,0,0,0-17.986,13.8A1.154,1.154,0,0,0,11.442,20.8Z" transform="translate(-6.364 -2.386)" fill="#fff"/>
      <path id="Path_38098" data-name="Path 38098" d="M20.118,64.828A19.569,19.569,0,0,1,7.779,48.986h1.83a.863.863,0,0,0,.784-.471.9.9,0,0,0-.052-.889L7.151,43.078a.882.882,0,0,0-1.412,0L2.55,47.627a.792.792,0,0,0-.052.889.9.9,0,0,0,.784.471h2.2a21.725,21.725,0,0,0,13.8,17.986,1.23,1.23,0,0,0,.418.1,1.159,1.159,0,0,0,.418-2.248Z" transform="translate(-2.386 -21.634)" fill="#fff"/>
      <path id="Path_38099" data-name="Path 38099" d="M66.332,62.335a1.2,1.2,0,0,0-1.516.68A19.568,19.568,0,0,1,48.974,75.354v-1.83a.863.863,0,0,0-.471-.784.9.9,0,0,0-.889.052l-4.549,3.189a.915.915,0,0,0-.366.732,1.1,1.1,0,0,0,.366.732l4.549,3.189a.843.843,0,0,0,.471.157,1.231,1.231,0,0,0,.418-.1.9.9,0,0,0,.471-.784v-2.2A21.873,21.873,0,0,0,66.96,63.852,1.154,1.154,0,0,0,66.332,62.335Z" transform="translate(-21.622 -30.958)" fill="#fff"/>
      <path id="Path_38100" data-name="Path 38100" d="M80.582,29.239a.9.9,0,0,0-.784-.471H77.6A21.574,21.574,0,0,0,63.852,10.835a1.175,1.175,0,0,0-.837,2.2A19.569,19.569,0,0,1,75.354,28.873h-1.83a.863.863,0,0,0-.784.471.894.894,0,0,0,.052.889l3.189,4.549a.915.915,0,0,0,.732.366,1.1,1.1,0,0,0,.732-.366l3.189-4.549A1.3,1.3,0,0,0,80.582,29.239Z" transform="translate(-30.958 -6.384)" fill="#fff"/>
    </g>
  </g>
</svg>
