<svg xmlns="http://www.w3.org/2000/svg" width="42.951" height="40.805" viewBox="0 0 42.951 40.805">
  <g id="noun_Box_3093107" transform="translate(-0.278 -0.514)">
    <g id="Group_45952" data-name="Group 45952" transform="translate(0.278 0.514)">
      <path id="Path_38113" data-name="Path 38113" d="M43.2,10.47a1.578,1.578,0,0,0-.118-.418l-5.23-8.6A1.949,1.949,0,0,0,36.184.514H7.323a1.951,1.951,0,0,0-1.674.937L.555,9.728l-.136.3a2.115,2.115,0,0,0-.109.437L.278,39.354a1.968,1.968,0,0,0,1.965,1.965H41.265a1.965,1.965,0,0,0,1.965-1.965V10.724ZM8.419,4.443h26.66l2.665,4.33H5.758ZM39.3,37.385H4.207V12.7H39.3Z" transform="translate(-0.278 -0.514)" fill="#fff"/>
      <path id="Path_38115" data-name="Path 38115" d="M302,539.76c-.007-.1-.017-.2-.028-.3,0-.049,0-.1-.01-.146l0,0h0a6.323,6.323,0,0,0-.262-1.186c-.059-.2-.126-.4-.2-.593a.945.945,0,0,0-.108-.265c.01.021.014.038.021.052,0,0,0-.007-.007-.01l-.021-.042c-.017-.042-.038-.087-.059-.129a8.3,8.3,0,0,0-.568-1.036c-.112-.171-.227-.338-.349-.5-.017-.024-.038-.049-.056-.077.017.024.038.049.056.07a.652.652,0,0,0-.087-.112c-.059-.073-.119-.146-.181-.216a8.461,8.461,0,0,0-.823-.834c-.084-.073-.167-.143-.251-.213a1.378,1.378,0,0,0-.112-.087l0,0c-.15-.112-.3-.223-.46-.324a8.261,8.261,0,0,0-1.029-.579,1.175,1.175,0,0,0-.3-.136c.024.01.045.017.059.024-.007,0-.014,0-.021-.007s-.028-.01-.045-.017l-.132-.052c-.178-.07-.359-.129-.544-.188a8.523,8.523,0,0,0-1.182-.272c-.031,0-.066-.01-.1-.014a.012.012,0,0,1-.01,0c.014,0,.035,0,.056.007a.5.5,0,0,0-.146-.017c-.1-.01-.2-.021-.3-.028-.2-.014-.4-.024-.6-.024-.22,0-.436.007-.652.021-.1.007-.2.014-.3.024-.049,0-.1.01-.146.017h0a9.093,9.093,0,0,0-1.186.258c-.2.059-.4.125-.593.2a.931.931,0,0,0-.265.1.364.364,0,0,0,.049-.021l.021-.01-.021.01a.012.012,0,0,0-.007,0,.214.214,0,0,1-.042.018c-.045.017-.087.038-.129.059a8.324,8.324,0,0,0-1.036.568c-.171.112-.338.227-.5.349-.024.017-.049.038-.077.056.024-.017.049-.038.07-.056a.647.647,0,0,0-.112.087c-.073.059-.147.119-.216.181a8.451,8.451,0,0,0-.833.823c-.073.08-.143.164-.213.251-.028.038-.059.073-.087.112l0,0h0c-.112.15-.223.3-.324.46a8.289,8.289,0,0,0-.579,1.029,1.175,1.175,0,0,0-.136.3.385.385,0,0,0,.021-.052s0,.007-.007.014-.01.031-.017.045c-.017.045-.035.087-.052.133q-.1.267-.188.544a8.549,8.549,0,0,0-.272,1.182c0,.031-.01.066-.014.1s0,.028-.007.038a.636.636,0,0,0,.01-.08.5.5,0,0,0-.017.146c-.01.1-.021.2-.028.3-.014.2-.024.4-.024.6a8.1,8.1,0,0,0,.035.823c.007.063.014.125.017.188,0,.014.014.112.017.125h0q.021.152.052.3a8.483,8.483,0,0,0,.418,1.486c.021.056.042.112.066.167a.013.013,0,0,1,0,.007c.01.024.042.091.045.1.049.112.1.22.157.331.1.209.22.415.342.614s.241.38.373.562c.031.042.063.084.091.125,0,0,.007.007.007.01a0,0,0,0,0,0,0l0,0c.066.08.129.16.2.241a9.041,9.041,0,0,0,.907.921c.091.08.185.157.279.234a.074.074,0,0,0,.017.014,0,0,0,0,1,0,0l.01.01h0c.035.028.073.052.108.08.167.122.338.24.516.349s.387.234.586.335a3.523,3.523,0,0,0,.568.268c-.188-.059.035.014.07.028s.1.038.147.056c.1.038.2.073.3.1.2.066.4.126.61.178.227.056.453.1.684.143.052.01.108.017.16.024a.013.013,0,0,1,.011,0h.014c.108.01.216.024.328.035a8.693,8.693,0,0,0,1.381,0c.125-.01.255-.024.38-.038h.014a.013.013,0,0,0,.01,0c.052-.007.108-.017.16-.024.213-.035.422-.08.631-.129a7.016,7.016,0,0,0,1.2-.391l.021-.01.1-.049c.049-.021.094-.045.143-.066.094-.045.188-.091.279-.14.185-.1.366-.2.544-.31s.377-.244.558-.376c.035-.028.073-.053.108-.08h0l.01-.01c.007-.007.017-.014.021-.017.08-.066.16-.129.241-.2a8.682,8.682,0,0,0,.914-.914c.08-.091.153-.185.23-.279a0,0,0,0,1,0,0l0,0s0-.007.007-.01c.031-.042.063-.084.091-.125.122-.167.237-.342.345-.516q.2-.319.366-.659c.056-.108.108-.22.157-.331.007-.014.045-.1.049-.112h0c.014-.035.028-.073.042-.108a8.829,8.829,0,0,0,.439-1.482,1.934,1.934,0,0,0,.07-.366h0c0-.017.007-.112.01-.125.007-.063.01-.125.017-.188.021-.258.031-.513.031-.771A4.925,4.925,0,0,0,302,539.76Zm-3.526-1.032c-.2.2-.4.4-.6.593L295.3,541.9l-1.625,1.625a1.1,1.1,0,0,1-1.524,0l-.289-.29-2.033-2.033a1.078,1.078,0,1,1,1.524-1.524c.1.1.192.192.289.286.425.425.847.844,1.273,1.266.8-.8,1.6-1.6,2.406-2.4l1.625-1.625a1.079,1.079,0,0,1,1.527,1.524Z" transform="translate(-265.969 -513.489)" fill="#fff"/>
    </g>
  </g>
</svg>
