<svg xmlns="http://www.w3.org/2000/svg" width="42" height="42" viewBox="0 0 42 42">
  <g id="noun_products_1375567_1_" data-name="noun_products_1375567 (1)" transform="translate(-11 -11)">
    <g id="Group_45951" data-name="Group 45951" transform="translate(11 11)">
      <path id="Path_38109" data-name="Path 38109" d="M25.215,11H16.708A5.676,5.676,0,0,0,11,16.708v8.562a5.665,5.665,0,0,0,5.708,5.654h8.562a5.665,5.665,0,0,0,5.654-5.708V16.708A5.676,5.676,0,0,0,25.215,11Zm1.4,14.215a1.39,1.39,0,0,1-1.4,1.4H16.708a1.39,1.39,0,0,1-1.4-1.4V16.708a1.39,1.39,0,0,1,1.4-1.4h8.562a1.39,1.39,0,0,1,1.4,1.4v8.508Z" transform="translate(-11 -11)" fill="#fff"/>
      <path id="Path_38110" data-name="Path 38110" d="M57.708,30.923h8.562a5.665,5.665,0,0,0,5.654-5.708V16.708A5.676,5.676,0,0,0,66.215,11H57.708A5.676,5.676,0,0,0,52,16.708v8.562A5.665,5.665,0,0,0,57.708,30.923Zm-1.4-14.215a1.39,1.39,0,0,1,1.4-1.4h8.562a1.39,1.39,0,0,1,1.4,1.4v8.562a1.39,1.39,0,0,1-1.4,1.4H57.708a1.39,1.39,0,0,1-1.4-1.4Z" transform="translate(-29.923 -11)" fill="#fff"/>
      <path id="Path_38111" data-name="Path 38111" d="M25.215,52H16.708A5.676,5.676,0,0,0,11,57.708v8.562a5.665,5.665,0,0,0,5.708,5.654h8.562a5.665,5.665,0,0,0,5.654-5.708V57.708A5.676,5.676,0,0,0,25.215,52Zm1.4,14.215a1.39,1.39,0,0,1-1.4,1.4H16.708a1.39,1.39,0,0,1-1.4-1.4V57.708a1.39,1.39,0,0,1,1.4-1.4h8.562a1.39,1.39,0,0,1,1.4,1.4v8.508Z" transform="translate(-11 -29.923)" fill="#fff"/>
      <path id="Path_38112" data-name="Path 38112" d="M61.962,71.923A9.962,9.962,0,1,0,52,61.962,9.973,9.973,0,0,0,61.962,71.923Zm0-15.615a5.654,5.654,0,1,1-5.654,5.654A5.653,5.653,0,0,1,61.962,56.308Z" transform="translate(-29.923 -29.923)" fill="#fff"/>
    </g>
  </g>
</svg>
