<svg xmlns="http://www.w3.org/2000/svg" width="24.813" height="15.992" viewBox="0 0 24.813 15.992">
  <g id="google-hangouts" transform="translate(0 0)">
    <path id="Path_4357" data-name="Path 4357" d="M8.044,2.908a5.123,5.123,0,0,1,4.071,2.05L14.18,2.879a7.991,7.991,0,1,0,1.556,7.3A7.751,7.751,0,0,0,16.041,8V7.269H8.771v2.907h3.853a5.058,5.058,0,0,1-4.58,2.908A5.136,5.136,0,0,1,2.907,8,5.136,5.136,0,0,1,8.044,2.908Zm0,0" transform="translate(0 0)" fill="#8a8a8a"/>
    <path id="Path_4358" data-name="Path 4358" d="M366.089,90h-2.908v2.181H361v2.908h2.181v2.181h2.908V95.089h2.229V92.181h-2.229Zm0,0" transform="translate(-343.505 -85.638)" fill="#8a8a8a"/>
  </g>
</svg>
