<svg id="instagram" xmlns="http://www.w3.org/2000/svg" width="21.042" height="21.042" viewBox="0 0 21.042 21.042">
  <g id="Group_1292" data-name="Group 1292">
    <g id="Group_1291" data-name="Group 1291">
      <path id="Path_4359" data-name="Path 4359" d="M14.466,0H6.576A6.576,6.576,0,0,0,0,6.576v7.891a6.576,6.576,0,0,0,6.576,6.576h7.891a6.576,6.576,0,0,0,6.576-6.576V6.576A6.576,6.576,0,0,0,14.466,0Zm4.6,14.466a4.608,4.608,0,0,1-4.6,4.6H6.576a4.608,4.608,0,0,1-4.6-4.6V6.576a4.608,4.608,0,0,1,4.6-4.6h7.891a4.608,4.608,0,0,1,4.6,4.6Z" fill="#8a8a8a"/>
    </g>
  </g>
  <g id="Group_1294" data-name="Group 1294" transform="translate(5.26 5.26)">
    <g id="Group_1293" data-name="Group 1293">
      <path id="Path_4360" data-name="Path 4360" d="M133.26,128a5.261,5.261,0,1,0,5.261,5.261A5.261,5.261,0,0,0,133.26,128Zm0,8.548a3.288,3.288,0,1,1,3.288-3.288A3.292,3.292,0,0,1,133.26,136.548Z" transform="translate(-128 -128)" fill="#8a8a8a"/>
    </g>
  </g>
  <g id="Group_1296" data-name="Group 1296" transform="translate(15.475 4.165)">
    <g id="Group_1295" data-name="Group 1295">
      <ellipse id="Ellipse_5" data-name="Ellipse 5" cx="0.701" cy="0.701" rx="0.701" ry="0.701" fill="#8a8a8a"/>
    </g>
  </g>
</svg>
