<svg xmlns="http://www.w3.org/2000/svg" width="34.013" height="47.774" viewBox="0 0 34.013 47.774">
  <g id="noun_List_843487" transform="translate(0 0)">
    <g id="Group_46119" data-name="Group 46119" transform="translate(0 0)">
      <path id="Path_38151" data-name="Path 38151" d="M45.449,14.6H43.06v3.012h2.389a2.792,2.792,0,0,1,2.8,2.8V51.053a2.792,2.792,0,0,1-2.8,2.8H23.016a2.792,2.792,0,0,1-2.8-2.8V20.416a2.792,2.792,0,0,1,2.8-2.8H25.4V14.6H23.016A5.806,5.806,0,0,0,17.2,20.416V51.053a5.806,5.806,0,0,0,5.816,5.816H45.4a5.806,5.806,0,0,0,5.816-5.816V20.416A5.8,5.8,0,0,0,45.449,14.6Z" transform="translate(-17.2 -9.096)" fill="#fff"/>
      <path id="Path_38152" data-name="Path 38152" d="M36.419,13.555h13.6a.52.52,0,0,0,.519-.519V9.141a.914.914,0,0,0-.571-.831l-4.154-.987V6.6a2.6,2.6,0,1,0-5.193,0v.727l-4.154.987a.842.842,0,0,0-.571.831v3.895A.558.558,0,0,0,36.419,13.555Zm6.8-8.257a1.09,1.09,0,1,1-1.09,1.09A1.1,1.1,0,0,1,43.222,5.3Z" transform="translate(-26.19 -4)" fill="#fff"/>
      <rect id="Rectangle_30478" data-name="Rectangle 30478" width="20.148" height="3.012" transform="translate(6.958 16.669)" fill="#fff"/>
      <rect id="Rectangle_30479" data-name="Rectangle 30479" width="20.148" height="3.012" transform="translate(6.958 22.277)" fill="#fff"/>
      <rect id="Rectangle_30480" data-name="Rectangle 30480" width="20.148" height="3.012" transform="translate(6.958 27.937)" fill="#fff"/>
      <rect id="Rectangle_30481" data-name="Rectangle 30481" width="15.994" height="3.012" transform="translate(6.958 33.597)" fill="#fff"/>
    </g>
  </g>
</svg>
