<svg xmlns="http://www.w3.org/2000/svg" width="200" height="70" viewBox="0 0 200 70">
  <g id="Group_4461" data-name="Group 4461" transform="translate(2731 20582)">
    <rect id="Rectangle_1905" data-name="Rectangle 1905" width="200" height="70" rx="12" transform="translate(-2731 -20582)" fill="#3baeaa"/>
    <text id="حمل_الآن" data-name="حمل الآن" transform="translate(-2656 -20555)" fill="#fff" font-size="14" font-family="URWDINArabic-Medium, URW DIN Arabic" font-weight="500"><tspan x="0" y="0">حمل الآن</tspan></text>
    <text id="Google_Play" data-name="Google Play" transform="translate(-2697 -20529)" fill="#fff" font-size="18" font-family="URWDINArabic-Bold, URW DIN Arabic" font-weight="700"><tspan x="0" y="0">Google Play</tspan></text>
    <g id="noun_Android_3889157" transform="translate(-2595.175 -20577.176)">
      <g id="Group_40680" data-name="Group 40680" transform="translate(14 14)">
        <path id="Path_33541" data-name="Path 33541" d="M34,69.234h2.265V71.5a2.588,2.588,0,0,0,5.176,0V69.234H45.97V71.5a2.588,2.588,0,1,0,5.176,0V69.234H53.41V55H34Z" transform="translate(-27.53 -41.736)" fill="#fff"/>
        <path id="Path_33542" data-name="Path 33542" d="M51.621,14.175A1.271,1.271,0,0,0,50.974,14a1.294,1.294,0,0,0-1.119.647l-1.941,3.374a9.705,9.705,0,0,0-12.778,0l-1.954-3.374A1.294,1.294,0,0,0,32.062,14a1.271,1.271,0,0,0-.647.175,1.294,1.294,0,0,0-.476,1.766l2.4,4.16a9.611,9.611,0,0,0-1.53,5.221h19.41a9.611,9.611,0,0,0-1.53-5.221l2.4-4.16a1.294,1.294,0,0,0-.476-1.766ZM37.8,22.735a.971.971,0,1,1,.971-.971A.971.971,0,0,1,37.8,22.735Zm7.441,0a.971.971,0,1,1,.971-.971A.971.971,0,0,1,45.238,22.735Z" transform="translate(-25.343 -14)" fill="#fff"/>
        <path id="Path_33543" data-name="Path 33543" d="M103.941,55A1.941,1.941,0,0,0,102,56.941v6.47a1.941,1.941,0,1,0,3.882,0v-6.47A1.941,1.941,0,0,0,103.941,55Z" transform="translate(-73.532 -41.736)" fill="#fff"/>
        <path id="Path_33544" data-name="Path 33544" d="M15.941,55A1.941,1.941,0,0,0,14,56.941v6.47a1.941,1.941,0,0,0,3.882,0v-6.47A1.941,1.941,0,0,0,15.941,55Z" transform="translate(-14 -41.736)" fill="#fff"/>
      </g>
    </g>
  </g>
</svg>
