<svg xmlns="http://www.w3.org/2000/svg" width="40.155" height="53.521" viewBox="0 0 40.155 53.521">
  <g id="noun_List_843507" transform="translate(0 0)">
    <g id="Group_46120" data-name="Group 46120" transform="translate(0 0)">
      <rect id="Rectangle_30482" data-name="Rectangle 30482" width="19.763" height="2.913" transform="translate(6.854 15.365)" fill="#fff"/>
      <rect id="Rectangle_30483" data-name="Rectangle 30483" width="19.763" height="2.913" transform="translate(6.854 20.906)" fill="#fff"/>
      <rect id="Rectangle_30484" data-name="Rectangle 30484" width="19.763" height="2.913" transform="translate(6.854 26.446)" fill="#fff"/>
      <rect id="Rectangle_30485" data-name="Rectangle 30485" width="9.882" height="2.913" transform="translate(6.854 31.987)" fill="#fff"/>
      <path id="Path_38153" data-name="Path 38153" d="M32.071,12.568H45.38a.512.512,0,0,0,.514-.514V8.227a.859.859,0,0,0-.571-.8l-4.055-.914V5.77a2.57,2.57,0,1,0-5.141,0v.743l-4.055.971a.859.859,0,0,0-.571.8v3.827A.615.615,0,0,0,32.071,12.568Zm6.683-8.054A1.085,1.085,0,1,1,37.669,5.6,1.085,1.085,0,0,1,38.754,4.514Z" transform="translate(-22.018 -3.2)" fill="#fff"/>
      <path id="Path_38154" data-name="Path 38154" d="M52.027,49.942l1.485-1.485a4.965,4.965,0,0,0,0-7.083l-.743-.743a4.878,4.878,0,0,0-3.541-1.485c-.286,0-.628.057-.914.057V18.412A5.729,5.729,0,0,0,42.6,12.7H40.261v2.913H42.6a2.742,2.742,0,0,1,2.742,2.742V40.917L44.2,42.06l-1.485-1.485a4.785,4.785,0,0,0-3.541-1.485,4.974,4.974,0,0,0-3.541,1.485l-.685.857a4.878,4.878,0,0,0-1.485,3.541,4.974,4.974,0,0,0,1.485,3.541L36.434,50l-1.257,1.257H20.612a2.742,2.742,0,0,1-2.742-2.742v-30.1a2.742,2.742,0,0,1,2.742-2.742h2.342V12.757H20.612A5.729,5.729,0,0,0,14.9,18.469V48.514a5.729,5.729,0,0,0,5.712,5.712H33.521a3.771,3.771,0,0,0-.057.8,4.974,4.974,0,0,0,1.485,3.541l.743.743a5.115,5.115,0,0,0,3.541,1.485,4.974,4.974,0,0,0,3.541-1.485l1.485-1.485,1.485,1.485a5.115,5.115,0,0,0,3.541,1.485,4.974,4.974,0,0,0,3.541-1.485l.743-.743a5.115,5.115,0,0,0,1.485-3.541,4.974,4.974,0,0,0-1.485-3.541ZM51.456,56.4l-.743.743a1.937,1.937,0,0,1-2.856,0l-3.313-3.313-.228-.228L43.8,54l-3.142,3.2a1.937,1.937,0,0,1-2.856,0l-.743-.743a2.142,2.142,0,0,1-.457-2.285,1.62,1.62,0,0,1,.457-.628l2.285-2.285L40.6,50l-3.541-3.541a2.069,2.069,0,0,1,0-2.913L37.8,42.8a1.937,1.937,0,0,1,2.856,0L44.2,46.344,45.345,45.2l2.4-2.4a3.139,3.139,0,0,1,.514-.4,2.688,2.688,0,0,1,.914-.228A2.045,2.045,0,0,1,50.6,42.8l.743.743a2.069,2.069,0,0,1,0,2.913l-3.256,3.256L47.8,50l.171.171,3.37,3.37A1.911,1.911,0,0,1,51.456,56.4Z" transform="translate(-14.9 -7.274)" fill="#fff"/>
    </g>
  </g>
</svg>
