<svg xmlns="http://www.w3.org/2000/svg" xmlns:xlink="http://www.w3.org/1999/xlink" width="1600" height="446.267" viewBox="0 0 1600 446.267">
  <defs>
    <linearGradient id="linear-gradient" x1="0.5" x2="0.5" y2="1" gradientUnits="objectBoundingBox">
      <stop offset="0" stop-color="#fff" stop-opacity="0"/>
      <stop offset="0.563" stop-color="#fff" stop-opacity="0.929"/>
      <stop offset="0.641" stop-color="#fff"/>
      <stop offset="1" stop-color="#fff"/>
    </linearGradient>
  </defs>
  <g id="Group_40678" data-name="Group 40678" transform="translate(0 -473.733)">
    <g id="Group_40677" data-name="Group 40677" transform="translate(549 243.018)">
      <g id="Group_40676" data-name="Group 40676" transform="translate(-549 230.715)" opacity="0.64">
        <g id="Group_40643" data-name="Group 40643" transform="translate(0 5.724)">
          <g id="Group_40641" data-name="Group 40641">
            <path id="Path_16558" data-name="Path 16558" d="M3.895,260.522v6.36H23.687v36.836h7.7l-2.878-60.374,25.342,17.246v54.5h6.057V292.224H62.99v-6.361h4.9v6.361h21.8v21.323l5,2.161L92.114,265.7l35.133,10.367v19.3h3.374V207.342h26.244V314.674h6.7l-2-26.638,14.861,6.417-2.19-29.155,25.342,10.943V310.63h2.968V285.012h20.5V280.1h4.9v4.908h4.375V331.94H234.8v-59.3h3.079v-6.36h4.9v6.36h21.8v42.032h2.481V295.968L272.86,280.1V245.643l3.672-11.615v-18.91l3.973-15.551h2.865l3.973,15.551v18.91l3.672,11.615V280.1l5.809,15.863v29.061h2.968V293.154l6-1.165v-5.261h4.9v4.31l56.3-10.934-6.253,37.437H373.46V256.894l3.941-.3v-4.559h4.9v4.189l11.613-.877-.959,7.177,4.127-.247-4.812,28.539,2.858,9.039v26.983h2.154V289.32h12.363L405.726,213.2l35.133,10.367v47.853h7.79v-6.361h4.9v6.361h3.079v59.3H459.1V283.789h4.375V278.88h4.9v4.908h20.5v25.617h2.968V275.018l25.342-10.943L515,293.23l14.861-6.417-1.019,13.562h18.139V247.307l35.133-10.367-2.9,56.424h13.251V263.7h29.773V297.4h8.737V286.008l25.342-10.943-3.278,43.641h8.8l-1.4-18.659,20.5,8.85V266.882h3.079v-6.36h4.9v6.36h21.8v33.492h4.961V286.728l3.672-11.615V256.2l3.973-15.551h2.865l3.973,15.551v18.91l3.672,11.615V308.9h5.865V276.064L774.818,265.7l-1.083,21.047,15.708-6.783L787.5,305.884H800V446.069H0V260.522Z" transform="translate(0 -199.567)" fill="#eee"/>
          </g>
          <g id="Group_40642" data-name="Group 40642" transform="translate(800)">
            <path id="Path_16559" data-name="Path 16559" d="M303.895,260.522v6.36h19.792v36.836h7.7l-2.878-60.374,25.342,17.246v54.5h6.057V292.224h3.079v-6.361h4.9v6.361h21.8v21.323l5,2.161L392.114,265.7l35.133,10.367v19.3h3.374V207.342h26.244V314.674h6.7l-2-26.638,14.861,6.417-2.19-29.155,25.342,10.943V310.63h2.968V285.012h20.5V280.1h4.9v4.908h4.375V331.94H534.8v-59.3h3.08v-6.36h4.9v6.36h21.8v42.032h2.481V295.968L572.86,280.1V245.643l3.672-11.615v-18.91l3.973-15.551h2.865l3.973,15.551v18.91l3.672,11.615V280.1l5.809,15.863v29.061h2.968V293.154l6-1.165v-5.261h4.9v4.31l56.3-10.934-6.253,37.437H673.46V256.894l3.941-.3v-4.559h4.9v4.189l11.613-.877-.959,7.177,4.127-.247-4.812,28.539,2.858,9.039v26.983h2.154V289.32h12.363L705.725,213.2l35.133,10.367v47.853h7.79v-6.361h4.9v6.361h3.08v59.3h2.48V283.789h4.375V278.88h4.9v4.908h20.5v25.617h2.968V275.018l25.342-10.943L815,293.23l14.861-6.417-1.019,13.562h18.139V247.307l35.133-10.367-2.9,56.424h13.251V263.7h29.773V297.4h8.737V286.008l25.342-10.943-3.278,43.641h8.8l-1.4-18.659,20.5,8.85V266.882h3.079v-6.36h4.9v6.36h21.8v33.492h4.961V286.728l3.672-11.615V256.2l3.973-15.551h2.865l3.973,15.551v18.91l3.672,11.615V308.9h5.865V276.064l35.133-10.367-1.083,21.047,15.708-6.783-1.947,25.924H1100V446.069H300V260.522Z" transform="translate(-300 -199.567)" fill="#eee"/>
          </g>
        </g>
        <g id="Group_40644" data-name="Group 40644">
          <path id="Path_16560" data-name="Path 16560" d="M1592.21,307.773v11.515h-39.585v66.688h-15.4l5.755-109.3L1492.292,307.9V406.57h-12.114v-41.4h-6.159V353.653h-9.791v11.515h-43.6v38.6l-10.006,3.911,5.145-90.541-70.266,18.769v34.947h-6.749V211.5h-52.487V405.81h-13.4l4-48.225L1247.153,369.2l4.38-52.782-50.684,19.811v62.257h-5.937V352.111h-41v-8.886h-9.791v8.886h-8.751v84.958h-4.961V329.715h-6.159V318.2h-9.791v11.515h-43.6v76.1H1065.9V371.945l-11.618-28.719V280.837l-7.344-21.028V225.574l-7.947-28.153h-5.729l-7.947,28.153v34.235l-7.344,21.028v62.389l-11.618,28.719v52.612h-5.936V366.85l-12-2.109v-9.524h-9.791v7.8l-112.6-19.794L878.534,411H853.08v-109.8l-7.882-.539v-8.253h-9.791V300L812.18,298.41,814.1,311.4l-8.254-.447,9.623,51.666-5.715,16.365v48.851h-4.308V359.909H780.718L788.549,222.1l-70.266,18.769V327.5H702.7V315.985h-9.791V327.5h-6.159V434.853h-4.961V349.9h-8.75V341.01h-9.792V349.9h-41v46.378h-5.937V334.017l-50.684-19.811,4.38,52.782L540.283,355.37l2.038,24.552H506.043V283.85l-70.266-18.769,5.8,102.149h-26.5v-53.7H355.533v61H338.059V353.913L287.375,334.1l6.556,79.008H276.326l2.8-33.78-40.992,16.023V319.288h-6.159V307.773h-9.791v11.515h-43.6v60.633h-9.923v-24.7l-7.343-21.028V299.953L153.379,271.8H147.65L139.7,299.953v34.235l-7.343,21.028v40.144H120.63v-59.45L50.364,317.142l2.165,38.1-31.416-12.28L25.008,389.9H0v253.79H1600V307.773Z" transform="translate(0 -197.42)" fill="#e0e0e0"/>
        </g>
      </g>
      <rect id="Rectangle_18455" data-name="Rectangle 18455" width="1599" height="352" transform="translate(-549 324.982)" fill="url(#linear-gradient)"/>
    </g>
  </g>
</svg>
