<svg xmlns="http://www.w3.org/2000/svg" width="23.093" height="18.763" viewBox="0 0 23.093 18.763">
  <g id="twitter_2_" data-name="twitter (2)" transform="translate(0 0)">
    <g id="Group_1290" data-name="Group 1290">
      <path id="Path_4356" data-name="Path 4356" d="M23.093,50.221a9.87,9.87,0,0,1-2.728.748,4.708,4.708,0,0,0,2.083-2.617,9.461,9.461,0,0,1-3,1.146,4.734,4.734,0,0,0-8.189,3.237,4.875,4.875,0,0,0,.11,1.08,13.4,13.4,0,0,1-9.758-4.952,4.736,4.736,0,0,0,1.455,6.327,4.675,4.675,0,0,1-2.139-.583v.052a4.756,4.756,0,0,0,3.793,4.652,4.725,4.725,0,0,1-1.241.156,4.185,4.185,0,0,1-.9-.081A4.779,4.779,0,0,0,7,62.684,9.513,9.513,0,0,1,1.133,64.7,8.869,8.869,0,0,1,0,64.638a13.328,13.328,0,0,0,7.263,2.125A13.382,13.382,0,0,0,20.737,53.291c0-.209-.007-.411-.017-.612A9.444,9.444,0,0,0,23.093,50.221Z" transform="translate(0 -48)" fill="#8a8a8a"/>
    </g>
  </g>
</svg>
